<svg aria-hidden="true" style="position: absolute; width: 0; height: 0; overflow: hidden;" version="1.1" xmlns="http://www.w3.org/2000/svg" xmlns:xlink="http://www.w3.org/1999/xlink">
<defs>
<symbol id="icon-logo" viewBox="0 0 75 32">
<path d="M13.131 2.542c0.332 0.165 0.705 0.638 0.955 0.918 2.148 2.4 3.275 5.457 3.076 8.674-0.193 3.114-1.731 5.879-4.039 7.922-0.437-0.299-0.837-0.724-1.187-1.119-1.961-2.218-3.035-5.333-2.848-8.289 0.193-3.047 1.751-6.097 4.042-8.106z"></path>
<path d="M22.274 6.9c0.006 0.011 0.014 0.021 0.019 0.032 0.122 0.249 0.158 0.644 0.189 0.92 0.162 1.437 0.028 2.878-0.478 4.239-1.263 3.4-4.182 5.902-7.409 7.385-0.038-0-0.013 0.003-0.071-0.031 0.197-0.323 0.472-0.611 0.7-0.914 0.348-0.473 0.663-0.97 0.944-1.485 0.989-1.819 1.461-3.82 1.46-5.883-0-0.586-0.014-1.171-0.183-1.737 0.303-0.336 0.674-0.619 1.034-0.891 1.16-0.878 2.329-1.489 3.796-1.635z"></path>
<path d="M3.947 6.914c0.174 0.007 0.35 0.029 0.522 0.056 1.326 0.202 2.486 0.908 3.521 1.725 0.289 0.228 0.605 0.466 0.823 0.765-0.551 2.829 0.18 5.795 1.642 8.242 0.234 0.389 0.486 0.766 0.756 1.131 0.129 0.174 0.283 0.331 0.398 0.514l-0.041 0.053c-2.412-1.031-4.671-2.857-6.125-5.038-1.525-2.289-2.029-4.754-1.498-7.447z"></path>
<path d="M24.633 13.227c0.385-0.046 1.246-0.094 1.569 0.111 0.016 0.048 0.021 0.053 0.023 0.112 0.006 0.226-0.141 0.563-0.217 0.774-0.511 1.452-1.387 2.749-2.543 3.766-2.263 2.001-5.196 2.719-8.159 2.528-0.56-0.058-1.136-0.097-1.674-0.269 2.482-0.763 4.843-2.323 6.554-4.271 0.421-0.479 0.729-1.035 1.138-1.516 0.777-0.914 2.185-1.156 3.311-1.235z"></path>
<path d="M0.922 13.303c1.157-0.136 2.726 0.054 3.679 0.774 0.566 0.428 0.908 1.223 1.376 1.765 1.464 1.695 3.297 3.032 5.359 3.907 0.439 0.188 0.891 0.384 1.355 0.498l-0.928 0.155c-2.702 0.389-5.503-0.094-7.815-1.597-1.575-1.024-2.683-2.428-3.335-4.18-0.096-0.257-0.239-0.536-0.288-0.803-0.029-0.156-0.003-0.259 0.088-0.392 0.145-0.107 0.334-0.106 0.509-0.127z"></path>
<path d="M48.117 10.968c0.901-0.007 1.883-0.088 2.773 0.042 0.572 0.083 1.154 0.288 1.502 0.779 0.256 0.361 0.34 0.869 0.26 1.3-0.097 0.528-0.432 0.834-0.856 1.118 0.102 0.043 0.202 0.090 0.299 0.142 0.375 0.203 0.64 0.554 0.749 0.964 0.15 0.56 0.030 1.136-0.249 1.633-0.063 0.095-0.137 0.179-0.22 0.258-0.855 0.811-2.729 0.654-3.833 0.643-0.213-0.002-0.493 0.017-0.651-0.144-0.038-0.081-0.054-0.134-0.059-0.226-0.073-1.186-0.007-2.417-0.007-3.608-0-0.843-0.085-1.94 0.025-2.755 0.085-0.106 0.139-0.106 0.267-0.145zM51.135 15.14c-0.477-0.311-1.28-0.221-1.834-0.22l0.002 1.537c0.614 0.004 1.331 0.099 1.875-0.23 0.128-0.189 0.257-0.47 0.22-0.705-0.027-0.171-0.12-0.289-0.262-0.382zM50.907 12.406c-0.455-0.274-1.094-0.204-1.606-0.201v1.476c0.549 0.004 1.204 0.085 1.684-0.225 0.129-0.185 0.254-0.45 0.205-0.683-0.036-0.171-0.137-0.279-0.283-0.366z"></path>
<path d="M39.72 12.565c0.137-0.011 0.276-0.004 0.411 0.022 0.412 0.083 0.613 0.386 0.833 0.709 0.013-0.113 0.021-0.235 0.048-0.345 0.027-0.115 0.090-0.186 0.194-0.241 0.166-0.089 0.524-0.094 0.698-0.030 0.127 0.047 0.269 0.158 0.312 0.291 0.13 0.394 0.079 4.247 0.004 4.774-0.049 0.347-0.157 0.69-0.332 0.994-0.282 0.491-0.763 0.811-1.303 0.957-0.761 0.206-1.627 0.14-2.306-0.269-0.303-0.182-0.445-0.417-0.525-0.755 0.026-0.122 0.056-0.241 0.161-0.32 0.34-0.257 1.075 0.174 1.453 0.245 0.325 0.060 0.676 0.027 0.946-0.177 0.446-0.336 0.519-0.957 0.595-1.47-0.298 0.319-0.582 0.575-1.022 0.683-0.477 0.117-0.999 0.037-1.409-0.235-0.54-0.358-0.841-0.972-0.951-1.595-0.135-0.759-0.017-1.666 0.443-2.301 0.439-0.605 1.042-0.828 1.751-0.937zM39.801 13.727c-0.355 0.134-0.551 0.298-0.703 0.652-0.187 0.435-0.193 1.065-0.010 1.501 0.097 0.23 0.291 0.472 0.535 0.555 0.161 0.054 0.356 0.031 0.522 0.019 0.292-0.104 0.459-0.228 0.597-0.511 0.213-0.436 0.22-1.051 0.057-1.506-0.094-0.265-0.281-0.525-0.546-0.639-0.136-0.058-0.306-0.078-0.452-0.070z"></path>
<path d="M69.203 12.606c0.349-0.046 0.692-0.031 1.021 0.106 0.455 0.188 0.691 0.531 0.871 0.969 0.092-0.231 0.194-0.464 0.357-0.656 0.258-0.304 0.596-0.425 0.988-0.44 0.451-0.017 0.913 0.086 1.244 0.41 0.217 0.213 0.351 0.498 0.424 0.791 0.194 0.778 0.085 2.451 0.088 3.331 0 0.135 0.017 0.56-0.088 0.64-0.179 0.135-0.814 0.105-1.037 0.074-0.13-0.018-0.211-0.088-0.265-0.207-0.083-0.182-0.038-0.507-0.036-0.708 0.009-0.653 0.169-2.456-0.217-2.932-0.089-0.109-0.214-0.178-0.356-0.188-0.208-0.015-0.472 0.057-0.624 0.205-0.535 0.524-0.358 2.389-0.353 3.122 0.001 0.148 0.007 0.31-0.012 0.457-0.008 0.065-0.031 0.14-0.090 0.174-0.228 0.131-0.783 0.111-1.035 0.052-0.131-0.031-0.187-0.075-0.234-0.202-0.078-0.211-0.034-0.523-0.030-0.746 0.012-0.654 0.167-2.28-0.166-2.77-0.1-0.147-0.249-0.237-0.423-0.265-0.199-0.032-0.406-0.006-0.568 0.122-0.651 0.514-0.473 2.314-0.47 3.058 0.001 0.179 0.037 0.435-0.004 0.602-0.017 0.070-0.037 0.112-0.097 0.152-0.209 0.137-0.776 0.108-1.027 0.058-0.105-0.021-0.172-0.085-0.218-0.181-0.064-0.136-0.083-4.047-0.059-4.435 0.007-0.108 0.029-0.223 0.078-0.32 0.064-0.125 0.17-0.206 0.301-0.248 0.31-0.1 0.696 0.011 0.97 0.163 0.066 0.244 0.019 0.564 0.008 0.819 0.032-0.065 0.065-0.13 0.098-0.194 0.242-0.467 0.469-0.657 0.962-0.814z"></path>
<path d="M63.574 12.627c1.441-0.030 2.638 1.104 2.686 2.545s-1.072 2.651-2.511 2.716c-0.947 0.043-1.845-0.426-2.349-1.229s-0.538-1.815-0.088-2.649c0.45-0.835 1.314-1.363 2.262-1.383zM63.397 13.771c-0.387 0.172-0.597 0.369-0.747 0.774-0.179 0.484-0.15 1.159 0.079 1.621 0.124 0.249 0.316 0.451 0.583 0.54 0.183 0.061 0.354 0.071 0.542 0.027 0.371-0.155 0.593-0.353 0.746-0.733 0.191-0.477 0.189-1.114-0.030-1.581-0.137-0.292-0.382-0.533-0.695-0.626-0.153-0.045-0.319-0.035-0.477-0.021z"></path>
<path d="M34.404 12.634c1.45-0.066 2.679 1.056 2.746 2.505s-1.051 2.681-2.501 2.751c-1.453 0.070-2.686-1.052-2.754-2.505s1.056-2.685 2.509-2.751zM34.814 13.806c-0.168-0.057-0.341-0.057-0.515-0.035-0.388 0.192-0.61 0.392-0.759 0.817-0.168 0.481-0.143 1.167 0.099 1.618 0.132 0.246 0.331 0.426 0.601 0.509 0.165 0.051 0.353 0.055 0.521 0.015 0.37-0.154 0.587-0.353 0.736-0.733 0.189-0.482 0.173-1.117-0.045-1.587-0.128-0.276-0.346-0.504-0.638-0.604z"></path>
<path d="M57.678 12.663c0.934-0.151 1.876 0.212 2.469 0.949s0.743 1.736 0.395 2.615c-0.349 0.879-1.143 1.504-2.080 1.634-1.427 0.2-2.749-0.787-2.964-2.212s0.758-2.757 2.18-2.987zM57.892 13.769c-0.39 0.166-0.614 0.354-0.772 0.758-0.185 0.473-0.167 1.129 0.052 1.589 0.132 0.277 0.357 0.505 0.654 0.6 0.149 0.048 0.317 0.047 0.471 0.028 0.389-0.164 0.615-0.348 0.776-0.752 0.187-0.469 0.184-1.117-0.034-1.575-0.13-0.272-0.35-0.502-0.638-0.604-0.163-0.057-0.339-0.057-0.509-0.043z"></path>
<path d="M44.536 12.609c0.329-0.039 0.646-0.033 0.971 0.043 0.492 0.114 0.905 0.4 1.156 0.842 0.134 0.236 0.212 0.496 0.249 0.765 0.057 0.415 0.090 3.039-0.004 3.4-0.079 0.101-0.159 0.138-0.282 0.164-0.21 0.045-0.672 0.072-0.842-0.086-0.149-0.137-0.118-0.424-0.12-0.609-0.247 0.365-0.495 0.659-0.944 0.771-0.501 0.125-0.966-0.022-1.398-0.271-0.184-0.169-0.324-0.343-0.403-0.583-0.133-0.406-0.090-0.953 0.117-1.326 0.504-0.906 1.69-0.852 2.558-1.108l0.054-0.016c-0.035-0.108-0.069-0.219-0.114-0.324-0.491-1.132-1.715 0.105-2.307-0.207-0.12-0.063-0.206-0.19-0.236-0.319-0.041-0.172 0.006-0.283 0.1-0.426 0.318-0.485 0.914-0.607 1.444-0.708zM45.591 15.634c-0.361 0.099-1.038 0.208-1.253 0.536-0.070 0.107-0.076 0.247-0.030 0.365 0.032 0.083 0.095 0.156 0.15 0.224 0.373 0.025 0.607-0.002 0.892-0.261 0.173-0.158 0.331-0.411 0.323-0.655-0.002-0.061-0.019-0.122-0.033-0.181l-0.049-0.028z"></path>
<path d="M29.821 13.583c0.129-0.411 1.135-2.375 1.455-2.559 0.166-0.096 1.055-0.11 1.233-0.029 0.114 0.052 0.127 0.083 0.179 0.19-0.091 0.509-1.215 2.215-1.547 2.772l-0.584 0.971c0.002 0.584 0.105 2.365-0.099 2.788-0.071 0.055-0.122 0.085-0.211 0.106-0.274 0.064-0.82 0.045-1.061-0.107-0.187-0.246-0.089-2.291-0.089-2.744-0.299-0.477-2.225-3.553-2.174-3.847 0.064-0.092 0.105-0.114 0.208-0.155 0.325-0.010 0.986-0.096 1.255 0.067 0.349 0.212 1.307 2.115 1.436 2.547z"></path>
<path d="M53.677 10.968c0.341-0.009 0.898-0.094 1.193 0.082 0.083 0.561 0.050 1.156 0.052 1.722l0.003 2.622c0 0.685 0.075 1.509-0.013 2.181-0.017 0.134-0.1 0.177-0.197 0.254-0.355 0.012-0.901 0.1-1.193-0.131-0.069-0.262-0.112-6.316-0.046-6.555 0.032-0.113 0.106-0.126 0.202-0.175z"></path>
<path d="M13.27 20.431c0.47 0.167 0.943 0.301 1.436 0.381 0.85 0.138 1.837 0.097 2.6 0.54 0.564 0.327 1.141 1.092 1.3 1.727 0.029 0.116 0.021 0.126-0.039 0.223-0.59 0.213-1.163 0.162-1.75-0.030-1.414-0.462-2.856-1.493-3.548-2.841z"></path>
<path d="M13.004 20.434c0.030-0.003 0.058 0.013 0.087 0.021-0.002 0.013-0.001 0.027-0.004 0.041-0.073 0.301-1.237 1.528-1.506 1.741-0.929 0.733-2.308 1.316-3.507 1.173-0.032-0.007-0.077-0.016-0.106-0.029-0.065-0.030-0.105-0.054-0.122-0.123-0.045-0.187 0.061-0.405 0.146-0.568 0.275-0.525 0.704-1.141 1.243-1.424 0.664-0.349 1.644-0.348 2.382-0.479 0.473-0.084 0.928-0.212 1.386-0.352z"></path>
</symbol>
<symbol id="icon-facebook" viewBox="0 0 31 32">
<path d="M28.16 16.507c0-7.113-5.731-12.878-12.8-12.878s-12.8 5.766-12.8 12.878c0 6.428 4.681 11.756 10.8 12.722v-8.999h-3.25v-3.723h3.25v-2.837c0-3.228 1.911-5.010 4.835-5.010 1.401 0 2.865 0.252 2.865 0.252v3.169h-1.614c-1.59 0-2.086 0.993-2.086 2.011v2.416h3.55l-0.567 3.723h-2.983v8.999c6.119-0.966 10.8-6.294 10.8-12.722z"></path>
</symbol>
<symbol id="icon-instagram" viewBox="0 0 33 32">
<path d="M22.222 4.324h-10.667c-3.682 0-6.667 2.985-6.667 6.667v10.667c0 3.682 2.985 6.667 6.667 6.667h10.667c3.682 0 6.667-2.985 6.667-6.667v-10.667c0-3.682-2.985-6.667-6.667-6.667zM26.555 21.657c-0.007 2.39-1.943 4.326-4.333 4.333h-10.667c-2.39-0.007-4.326-1.943-4.333-4.333v-10.667c0.007-2.39 1.943-4.326 4.333-4.333h10.667c2.39 0.007 4.326 1.943 4.333 4.333v10.667zM23.222 11.324c0.736 0 1.333-0.597 1.333-1.333s-0.597-1.333-1.333-1.333c-0.736 0-1.333 0.597-1.333 1.333s0.597 1.333 1.333 1.333zM16.889 10.324c-3.314 0-6 2.686-6 6s2.686 6 6 6c3.314 0 6-2.686 6-6 0.004-1.592-0.627-3.121-1.753-4.247s-2.654-1.757-4.247-1.753zM13.222 16.324c0 2.025 1.642 3.667 3.667 3.667s3.667-1.642 3.667-3.667c0-2.025-1.642-3.667-3.667-3.667s-3.667 1.642-3.667 3.667z"></path>
</symbol>
<symbol id="icon-youtube" viewBox="0 0 32 32">
<path d="M28.279 9.978c-0.146-0.541-0.431-1.034-0.826-1.431s-0.888-0.683-1.429-0.83c-2.004-0.55-10.024-0.559-10.024-0.559s-8.018-0.009-10.024 0.517c-0.54 0.154-1.032 0.444-1.428 0.842s-0.683 0.892-0.833 1.433c-0.529 2.004-0.534 6.162-0.534 6.162s-0.005 4.178 0.52 6.162c0.294 1.097 1.158 1.964 2.257 2.259 2.025 0.55 10.022 0.559 10.022 0.559s8.019 0.009 10.024-0.516c0.541-0.147 1.034-0.432 1.431-0.828s0.683-0.888 0.831-1.429c0.53-2.003 0.534-6.159 0.534-6.159s0.026-4.179-0.521-6.184zM13.435 19.965l0.006-7.68 6.665 3.846-6.671 3.834z"></path>
</symbol>
<symbol id="icon-check" viewBox="0 0 31 32">
<path d="M26.045 10.44l-13.568 13.568c-0.12 0.121-0.284 0.189-0.454 0.189s-0.334-0.068-0.454-0.189l-6.899-6.899c-0.121-0.12-0.189-0.284-0.189-0.454s0.068-0.334 0.189-0.454l0.896-0.896c0.12-0.121 0.284-0.189 0.454-0.189s0.334 0.068 0.454 0.189l5.542 5.542 12.224-12.224c0.253-0.245 0.656-0.245 0.909 0l0.896 0.909c0.121 0.12 0.189 0.284 0.189 0.454s-0.068 0.334-0.189 0.454z"></path>
</symbol>
<symbol id="icon-menu" viewBox="0 0 32 32">
<path d="M5.333 8h21.333v2.667h-21.333v-2.667zM5.333 14.667h21.333v2.667h-21.333v-2.667zM5.333 21.333h21.333v2.667h-21.333v-2.667z"></path>
</symbol>
<symbol id="icon-close" viewBox="0 0 32 32">
<path d="M27.179 0.918l-11.315 11.312-11.312-11.312-3.771 3.771 11.312 11.312-11.312 11.312 3.771 3.771 11.312-11.312 11.315 11.312 3.771-3.771-11.312-11.312 11.312-11.312-3.771-3.771z"></path>
</symbol>
<symbol id="icon-linkedin" viewBox="0 0 32 32">
<path d="M29 0h-26c-1.65 0-3 1.35-3 3v26c0 1.65 1.35 3 3 3h26c1.65 0 3-1.35 3-3v-26c0-1.65-1.35-3-3-3zM12 26h-4v-14h4v14zM10 10c-1.106 0-2-0.894-2-2s0.894-2 2-2c1.106 0 2 0.894 2 2s-0.894 2-2 2zM26 26h-4v-8c0-1.106-0.894-2-2-2s-2 0.894-2 2v8h-4v-14h4v2.481c0.825-1.131 2.087-2.481 3.5-2.481 2.488 0 4.5 2.238 4.5 5v9z"></path>
</symbol>
</defs>
</svg>
