<svg aria-hidden="true" style="position: absolute; width: 0; height: 0; overflow: hidden;" version="1.1" xmlns="http://www.w3.org/2000/svg" xmlns:xlink="http://www.w3.org/1999/xlink">
<defs>
<symbol id="icon-check" viewBox="0 0 31 32">
<path d="M26.045 10.44l-13.568 13.568c-0.12 0.121-0.284 0.189-0.454 0.189s-0.334-0.068-0.454-0.189l-6.899-6.899c-0.121-0.12-0.189-0.284-0.189-0.454s0.068-0.334 0.189-0.454l0.896-0.896c0.12-0.121 0.284-0.189 0.454-0.189s0.334 0.068 0.454 0.189l5.542 5.542 12.224-12.224c0.253-0.245 0.656-0.245 0.909 0l0.896 0.909c0.121 0.12 0.189 0.284 0.189 0.454s-0.068 0.334-0.189 0.454z"></path>
</symbol>
<symbol id="icon-close" viewBox="0 0 32 32">
<path d="M21.589 8.459l-5.657 5.656-5.656-5.656-1.885 1.885 5.656 5.656-5.656 5.656 1.885 1.885 5.656-5.656 5.657 5.656 1.885-1.885-5.656-5.656 5.656-5.656-1.885-1.885z"></path>
</symbol>
<symbol id="icon-facebook" viewBox="0 0 31 32">
<path d="M28.16 16.507c0-7.113-5.731-12.878-12.8-12.878s-12.8 5.766-12.8 12.878c0 6.428 4.681 11.756 10.8 12.722v-8.999h-3.25v-3.723h3.25v-2.837c0-3.228 1.911-5.010 4.835-5.010 1.401 0 2.865 0.252 2.865 0.252v3.169h-1.614c-1.59 0-2.086 0.993-2.086 2.011v2.416h3.55l-0.567 3.723h-2.983v8.999c6.119-0.966 10.8-6.294 10.8-12.722z"></path>
</symbol>
<symbol id="icon-instagram" viewBox="0 0 33 32">
<path d="M22.222 4.324h-10.667c-3.682 0-6.667 2.985-6.667 6.667v10.667c0 3.682 2.985 6.667 6.667 6.667h10.667c3.682 0 6.667-2.985 6.667-6.667v-10.667c0-3.682-2.985-6.667-6.667-6.667zM26.555 21.657c-0.007 2.39-1.943 4.326-4.333 4.333h-10.667c-2.39-0.007-4.326-1.943-4.333-4.333v-10.667c0.007-2.39 1.943-4.326 4.333-4.333h10.667c2.39 0.007 4.326 1.943 4.333 4.333v10.667zM23.222 11.324c0.736 0 1.333-0.597 1.333-1.333s-0.597-1.333-1.333-1.333c-0.736 0-1.333 0.597-1.333 1.333s0.597 1.333 1.333 1.333zM16.889 10.324c-3.314 0-6 2.686-6 6s2.686 6 6 6c3.314 0 6-2.686 6-6 0.004-1.592-0.627-3.121-1.753-4.247s-2.654-1.757-4.247-1.753zM13.222 16.324c0 2.025 1.642 3.667 3.667 3.667s3.667-1.642 3.667-3.667c0-2.025-1.642-3.667-3.667-3.667s-3.667 1.642-3.667 3.667z"></path>
</symbol>
<symbol id="icon-linkedin" viewBox="0 0 32 32">
<path d="M29 0h-26c-1.65 0-3 1.35-3 3v26c0 1.65 1.35 3 3 3h26c1.65 0 3-1.35 3-3v-26c0-1.65-1.35-3-3-3zM12 26h-4v-14h4v14zM10 10c-1.106 0-2-0.894-2-2s0.894-2 2-2c1.106 0 2 0.894 2 2s-0.894 2-2 2zM26 26h-4v-8c0-1.106-0.894-2-2-2s-2 0.894-2 2v8h-4v-14h4v2.481c0.825-1.131 2.087-2.481 3.5-2.481 2.488 0 4.5 2.238 4.5 5v9z"></path>
</symbol>
<symbol id="icon-logo" viewBox="0 0 108 32">
<path d="M18.908 1.101c0.478 0.237 1.015 0.919 1.375 1.321 3.094 3.456 4.716 7.858 4.429 12.491-0.278 4.484-2.492 8.465-5.816 11.408-0.629-0.43-1.205-1.043-1.709-1.612-2.823-3.193-4.371-7.68-4.101-11.936 0.278-4.388 2.521-8.779 5.821-11.672z"></path>
<path d="M32.075 7.376c0.009 0.016 0.020 0.030 0.028 0.047 0.176 0.359 0.227 0.927 0.272 1.325 0.233 2.069 0.040 4.144-0.688 6.104-1.818 4.895-6.021 8.499-10.669 10.635-0.055-0.001-0.018 0.004-0.102-0.045 0.284-0.465 0.68-0.88 1.008-1.316 0.501-0.682 0.955-1.396 1.359-2.139 1.424-2.62 2.104-5.5 2.102-8.471 0-0.844-0.020-1.687-0.264-2.501 0.436-0.484 0.97-0.891 1.488-1.284 1.671-1.264 3.354-2.144 5.466-2.355z"></path>
<path d="M5.684 7.397c0.251 0.010 0.504 0.042 0.752 0.080 1.909 0.29 3.579 1.307 5.071 2.484 0.416 0.328 0.872 0.671 1.185 1.102-0.793 4.074 0.259 8.345 2.365 11.868 0.336 0.56 0.7 1.103 1.089 1.628 0.186 0.25 0.407 0.477 0.574 0.74l-0.059 0.077c-3.473-1.485-6.727-4.114-8.82-7.255-2.196-3.296-2.922-6.846-2.157-10.723z"></path>
<path d="M35.472 16.487c0.554-0.066 1.795-0.136 2.259 0.16 0.023 0.070 0.030 0.077 0.033 0.162 0.009 0.325-0.203 0.811-0.313 1.114-0.736 2.091-1.998 3.959-3.662 5.424-3.259 2.881-7.483 3.915-11.749 3.641-0.806-0.084-1.636-0.14-2.411-0.387 3.574-1.099 6.974-3.345 9.437-6.15 0.606-0.69 1.049-1.49 1.639-2.184 1.118-1.316 3.146-1.664 4.767-1.779z"></path>
<path d="M1.327 16.596c1.666-0.196 3.926 0.078 5.298 1.115 0.816 0.617 1.307 1.762 1.981 2.541 2.108 2.441 4.748 4.366 7.717 5.626 0.632 0.271 1.283 0.553 1.952 0.718l-1.336 0.223c-3.891 0.56-7.924-0.135-11.254-2.3-2.267-1.475-3.864-3.497-4.803-6.019-0.138-0.37-0.344-0.771-0.415-1.157-0.041-0.225-0.005-0.373 0.127-0.564 0.209-0.154 0.481-0.152 0.733-0.183z"></path>
<path d="M69.289 13.234c1.297-0.011 2.712-0.127 3.992 0.060 0.824 0.12 1.661 0.415 2.162 1.121 0.368 0.52 0.489 1.251 0.375 1.873-0.14 0.761-0.622 1.2-1.233 1.61 0.147 0.062 0.291 0.129 0.431 0.204 0.539 0.292 0.921 0.798 1.079 1.388 0.216 0.806 0.043 1.636-0.359 2.351-0.090 0.137-0.197 0.258-0.316 0.371-1.231 1.167-3.929 0.941-5.52 0.926-0.306-0.003-0.709 0.025-0.938-0.207-0.055-0.117-0.077-0.194-0.085-0.325-0.105-1.708-0.009-3.481-0.010-5.195-0.001-1.214-0.122-2.794 0.036-3.967 0.122-0.153 0.2-0.152 0.384-0.209zM73.634 19.241c-0.687-0.448-1.844-0.319-2.641-0.317l0.003 2.214c0.883 0.006 1.916 0.143 2.7-0.331 0.185-0.272 0.37-0.676 0.316-1.015-0.039-0.246-0.173-0.417-0.377-0.55zM73.306 15.305c-0.655-0.394-1.575-0.294-2.312-0.29v2.125c0.791 0.006 1.734 0.123 2.425-0.324 0.186-0.266 0.365-0.648 0.295-0.984-0.051-0.247-0.198-0.401-0.408-0.527z"></path>
<path d="M57.197 15.534c0.197-0.016 0.397-0.006 0.591 0.031 0.593 0.119 0.883 0.556 1.2 1.021 0.018-0.163 0.031-0.339 0.069-0.498 0.039-0.166 0.13-0.268 0.279-0.348 0.239-0.127 0.754-0.136 1.005-0.043 0.183 0.068 0.387 0.227 0.45 0.419 0.186 0.567 0.114 6.116 0.006 6.875-0.071 0.5-0.226 0.993-0.479 1.431-0.407 0.707-1.099 1.168-1.876 1.379-1.096 0.296-2.343 0.202-3.321-0.388-0.436-0.263-0.641-0.6-0.756-1.087 0.037-0.176 0.080-0.347 0.231-0.461 0.49-0.37 1.549 0.251 2.093 0.352 0.468 0.087 0.973 0.039 1.363-0.255 0.642-0.484 0.748-1.379 0.857-2.116-0.43 0.459-0.838 0.829-1.471 0.984-0.686 0.169-1.438 0.053-2.029-0.339-0.777-0.515-1.211-1.399-1.37-2.296-0.194-1.092-0.025-2.399 0.637-3.314 0.632-0.871 1.501-1.192 2.521-1.349zM57.313 17.207c-0.511 0.193-0.794 0.429-1.012 0.939-0.27 0.626-0.278 1.533-0.014 2.161 0.139 0.331 0.418 0.68 0.77 0.799 0.232 0.078 0.513 0.044 0.751 0.028 0.421-0.15 0.66-0.328 0.86-0.736 0.307-0.628 0.317-1.513 0.082-2.169-0.136-0.381-0.405-0.755-0.786-0.92-0.195-0.084-0.441-0.112-0.651-0.101z"></path>
<path d="M99.652 15.593c0.502-0.067 0.996-0.044 1.47 0.152 0.655 0.271 0.995 0.765 1.254 1.395 0.133-0.333 0.279-0.668 0.514-0.944 0.372-0.437 0.859-0.611 1.422-0.633 0.649-0.025 1.314 0.124 1.791 0.59 0.313 0.307 0.505 0.718 0.61 1.139 0.279 1.121 0.123 3.53 0.127 4.797 0.001 0.194 0.025 0.807-0.127 0.922-0.258 0.194-1.172 0.151-1.494 0.106-0.188-0.026-0.304-0.127-0.381-0.297-0.119-0.262-0.056-0.73-0.052-1.020 0.012-0.94 0.244-3.537-0.312-4.222-0.128-0.157-0.309-0.256-0.513-0.27-0.299-0.021-0.68 0.082-0.898 0.296-0.771 0.755-0.515 3.44-0.509 4.496 0.002 0.213 0.009 0.446-0.017 0.658-0.012 0.094-0.044 0.202-0.13 0.251-0.329 0.188-1.128 0.16-1.49 0.076-0.189-0.044-0.269-0.108-0.337-0.291-0.112-0.304-0.049-0.753-0.044-1.074 0.017-0.942 0.24-3.283-0.239-3.989-0.144-0.212-0.358-0.341-0.61-0.382-0.286-0.047-0.584-0.009-0.817 0.175-0.937 0.74-0.681 3.332-0.677 4.403 0.001 0.257 0.054 0.626-0.006 0.867-0.024 0.1-0.054 0.162-0.14 0.218-0.301 0.198-1.118 0.155-1.479 0.084-0.151-0.030-0.248-0.123-0.314-0.26-0.092-0.195-0.12-5.828-0.085-6.386 0.009-0.155 0.042-0.321 0.113-0.461 0.092-0.179 0.245-0.296 0.433-0.357 0.446-0.144 1.002 0.015 1.396 0.234 0.095 0.352 0.027 0.813 0.012 1.18 0.046-0.094 0.093-0.187 0.141-0.279 0.348-0.672 0.675-0.946 1.385-1.172z"></path>
<path d="M91.546 15.622c2.075-0.043 3.799 1.59 3.867 3.665s-1.543 3.817-3.616 3.911c-1.364 0.062-2.656-0.614-3.382-1.77s-0.774-2.614-0.126-3.815c0.648-1.202 1.893-1.963 3.258-1.991zM91.291 17.271c-0.557 0.248-0.86 0.532-1.076 1.114-0.258 0.696-0.216 1.669 0.114 2.334 0.178 0.358 0.455 0.649 0.84 0.777 0.264 0.088 0.51 0.102 0.78 0.039 0.534-0.224 0.854-0.509 1.074-1.056 0.275-0.686 0.272-1.604-0.044-2.276-0.198-0.421-0.55-0.768-1.001-0.901-0.221-0.065-0.46-0.051-0.686-0.030z"></path>
<path d="M49.542 15.633c2.088-0.094 3.858 1.52 3.955 3.607s-1.514 3.861-3.601 3.961c-2.092 0.1-3.868-1.515-3.966-3.608s1.52-3.867 3.612-3.961zM50.132 17.321c-0.242-0.083-0.491-0.082-0.741-0.050-0.559 0.276-0.879 0.565-1.092 1.176-0.241 0.692-0.206 1.68 0.142 2.33 0.19 0.355 0.477 0.614 0.865 0.733 0.238 0.073 0.508 0.079 0.75 0.021 0.533-0.221 0.846-0.508 1.060-1.055 0.272-0.693 0.249-1.608-0.065-2.285-0.185-0.398-0.499-0.726-0.919-0.87z"></path>
<path d="M83.056 15.675c1.345-0.217 2.701 0.305 3.555 1.366s1.071 2.5 0.569 3.766c-0.503 1.266-1.646 2.165-2.995 2.354-2.055 0.288-3.958-1.134-4.268-3.185s1.091-3.97 3.139-4.301zM83.365 17.267c-0.561 0.239-0.884 0.51-1.111 1.091-0.266 0.681-0.24 1.625 0.075 2.288 0.19 0.399 0.514 0.728 0.941 0.864 0.214 0.068 0.457 0.067 0.677 0.040 0.56-0.236 0.885-0.501 1.117-1.082 0.269-0.676 0.265-1.608-0.049-2.269-0.186-0.392-0.504-0.723-0.919-0.87-0.234-0.083-0.488-0.082-0.733-0.061z"></path>
<path d="M64.132 15.597c0.474-0.056 0.931-0.047 1.397 0.061 0.709 0.164 1.303 0.577 1.665 1.213 0.193 0.34 0.305 0.715 0.359 1.101 0.083 0.598 0.13 4.376-0.006 4.896-0.114 0.146-0.229 0.198-0.406 0.236-0.303 0.064-0.967 0.103-1.213-0.124-0.214-0.198-0.17-0.611-0.172-0.877-0.355 0.525-0.713 0.948-1.359 1.11-0.721 0.18-1.391-0.031-2.012-0.39-0.265-0.244-0.466-0.494-0.58-0.84-0.192-0.584-0.13-1.372 0.169-1.91 0.725-1.305 2.434-1.227 3.684-1.595l0.078-0.024c-0.050-0.156-0.099-0.316-0.164-0.466-0.707-1.63-2.47 0.151-3.322-0.297-0.172-0.090-0.296-0.274-0.34-0.46-0.058-0.248 0.009-0.408 0.144-0.614 0.458-0.698 1.316-0.874 2.080-1.020zM65.65 19.953c-0.519 0.143-1.494 0.3-1.804 0.771-0.101 0.154-0.109 0.356-0.044 0.525 0.046 0.119 0.136 0.224 0.216 0.322 0.537 0.036 0.873-0.003 1.284-0.376 0.249-0.227 0.477-0.591 0.465-0.943-0.003-0.087-0.028-0.176-0.047-0.26l-0.070-0.040z"></path>
<path d="M42.942 17c0.186-0.591 1.634-3.42 2.095-3.685 0.24-0.138 1.519-0.159 1.776-0.041 0.165 0.076 0.183 0.12 0.257 0.274-0.132 0.732-1.75 3.19-2.228 3.991l-0.841 1.398c0.003 0.84 0.151 3.406-0.142 4.014-0.103 0.079-0.176 0.122-0.304 0.152-0.395 0.092-1.18 0.065-1.528-0.154-0.269-0.355-0.129-3.3-0.128-3.951-0.43-0.687-3.204-5.116-3.131-5.539 0.092-0.132 0.151-0.165 0.299-0.223 0.468-0.014 1.419-0.138 1.806 0.097 0.502 0.305 1.881 3.045 2.068 3.668z"></path>
<path d="M77.294 13.234c0.491-0.013 1.294-0.135 1.717 0.118 0.119 0.808 0.072 1.664 0.074 2.479l0.005 3.776c0 0.986 0.109 2.172-0.019 3.14-0.025 0.193-0.144 0.256-0.284 0.366-0.511 0.017-1.298 0.143-1.719-0.189-0.099-0.378-0.162-9.095-0.066-9.439 0.046-0.163 0.153-0.182 0.291-0.252z"></path>
<path d="M19.109 26.86c0.677 0.241 1.358 0.433 2.068 0.549 1.224 0.198 2.645 0.14 3.744 0.778 0.812 0.471 1.643 1.573 1.872 2.487 0.042 0.168 0.030 0.181-0.056 0.32-0.85 0.306-1.675 0.233-2.52-0.044-2.036-0.666-4.112-2.15-5.109-4.090z"></path>
<path d="M18.726 26.865c0.043-0.004 0.084 0.019 0.126 0.031-0.002 0.019-0.002 0.039-0.006 0.059-0.105 0.433-1.781 2.2-2.168 2.507-1.338 1.056-3.324 1.895-5.050 1.689-0.046-0.010-0.11-0.023-0.152-0.042-0.093-0.043-0.152-0.077-0.176-0.178-0.065-0.27 0.088-0.583 0.211-0.818 0.395-0.756 1.014-1.642 1.79-2.051 0.956-0.503 2.367-0.501 3.43-0.69 0.681-0.121 1.336-0.306 1.996-0.507z"></path>
</symbol>
<symbol id="icon-menu" viewBox="0 0 32 32">
<path d="M5.333 8h21.333v2.667h-21.333v-2.667zM5.333 14.667h21.333v2.667h-21.333v-2.667zM5.333 21.333h21.333v2.667h-21.333v-2.667z"></path>
</symbol>
<symbol id="icon-youtube" viewBox="0 0 32 32">
<path d="M28.279 9.978c-0.146-0.541-0.431-1.034-0.826-1.431s-0.888-0.683-1.429-0.83c-2.004-0.55-10.024-0.559-10.024-0.559s-8.018-0.009-10.024 0.517c-0.54 0.154-1.032 0.444-1.428 0.842s-0.683 0.892-0.833 1.433c-0.529 2.004-0.534 6.162-0.534 6.162s-0.005 4.178 0.52 6.162c0.294 1.097 1.158 1.964 2.257 2.259 2.025 0.55 10.022 0.559 10.022 0.559s8.019 0.009 10.024-0.516c0.541-0.147 1.034-0.432 1.431-0.828s0.683-0.888 0.831-1.429c0.53-2.003 0.534-6.159 0.534-6.159s0.026-4.179-0.521-6.184zM13.435 19.965l0.006-7.68 6.665 3.846-6.671 3.834z"></path>
</symbol>
</defs>
</svg>
